<svg width="20" height="20" viewBox="0 0 20 20" fill="none" xmlns="http://www.w3.org/2000/svg">
<path fill-rule="evenodd" clip-rule="evenodd" d="M4.685 15.2456C4.34982 15.4509 4.098 15.7681 3.97402 16.1411C3.85004 16.5141 3.86189 16.9189 4.00746 17.284C4.15303 17.6491 4.42296 17.951 4.76957 18.1364C5.11617 18.3218 5.51714 18.3787 5.90165 18.2971C6.28615 18.2155 6.62943 18.0006 6.87086 17.6904C7.11228 17.3802 7.2363 16.9947 7.22102 16.6019C7.20573 16.2092 7.05212 15.8344 6.78732 15.544C6.52252 15.2535 6.16357 15.0659 5.77389 15.0144C5.75307 14.9399 5.73399 14.8649 5.71667 14.7894C5.6407 14.4462 5.58137 14.0995 5.53889 13.7506C5.49299 13.3979 5.46702 13.0428 5.46111 12.6872C5.45996 12.5896 5.46274 12.4919 5.46944 12.3944C5.68278 12.3333 5.89722 12.2778 6.11111 12.2294C6.35611 12.1739 6.50167 12.4628 6.61889 12.6972L6.66667 12.7911H13.1939C13.3211 12.55 13.6094 12.1656 13.8889 12.2294C14.1867 12.2972 14.4861 12.3778 14.7828 12.47L14.7811 12.4706C14.78 12.4694 14.78 12.4694 14.7811 12.4717C14.7833 12.4794 14.7956 12.5161 14.8078 12.5939C14.8217 12.6839 14.8311 12.8006 14.8356 12.9411C14.8433 13.2211 14.8272 13.5617 14.7944 13.905C14.7611 14.2478 14.7117 14.5794 14.6561 14.8411C14.6439 14.8994 14.6317 14.9522 14.6194 15H13.8889C13.7857 15.0001 13.6847 15.0288 13.5969 15.0831C13.5092 15.1373 13.4383 15.215 13.3922 15.3072L12.8367 16.4183C12.798 16.4954 12.7779 16.5804 12.7778 16.6667V17.7778C12.7778 17.9251 12.8363 18.0664 12.9405 18.1706C13.0447 18.2748 13.186 18.3333 13.3333 18.3333H14.4444V17.2222H13.8889V16.7978L14.2322 16.1111H15.7678L16.1111 16.7978V17.2222H15.5556V18.3333H16.6667C16.814 18.3333 16.9553 18.2748 17.0595 18.1706C17.1637 18.0664 17.2222 17.9251 17.2222 17.7778V16.6667C17.2222 16.5804 17.202 16.4954 17.1633 16.4183L16.6078 15.3072C16.5617 15.215 16.4908 15.1373 16.4031 15.0831C16.3153 15.0288 16.2143 15.0001 16.1111 15H15.7578C15.8172 14.7039 15.8667 14.3583 15.9 14.0117C15.9367 13.6372 15.9556 13.2489 15.9461 12.91L15.9456 12.8944C18.1611 13.8306 20 15.37 20 16.9833V20H0V16.9833C0 15.2989 2.00556 13.6944 4.35056 12.7739C4.35667 13.1194 4.38944 13.51 4.43667 13.8883C4.48778 14.2967 4.55722 14.7028 4.63389 15.0372C4.65056 15.1089 4.66722 15.1783 4.685 15.2456ZM5.55556 17.2306C5.85444 17.2306 6.11111 16.9861 6.11111 16.6667C6.11111 16.3478 5.85444 16.1028 5.55556 16.1028C5.25667 16.1028 5 16.3472 5 16.6667C5 16.9856 5.25667 17.2306 5.55556 17.2306ZM10 10C11.1787 10 12.3092 9.53175 13.1427 8.69825C13.9762 7.86476 14.4444 6.7343 14.4444 5.55556C14.4444 4.37682 13.9762 3.24635 13.1427 2.41286C12.3092 1.57936 11.1787 1.11111 10 1.11111C8.82126 1.11111 7.6908 1.57936 6.8573 2.41286C6.02381 3.24635 5.55556 4.37682 5.55556 5.55556C5.55556 6.7343 6.02381 7.86476 6.8573 8.69825C7.6908 9.53175 8.82126 10 10 10ZM10 11.1111C13.0683 11.1111 15.5556 8.62389 15.5556 5.55556C15.5556 2.48722 13.0683 0 10 0C6.93167 0 4.44444 2.48722 4.44444 5.55556C4.44444 8.62389 6.93167 11.1111 10 11.1111Z" fill="#699BF7"/>
</svg>
