<svg width="20" height="20" viewBox="0 0 20 20" fill="none" xmlns="http://www.w3.org/2000/svg">
<path d="M5.33333 6.66667C5.46594 6.66667 5.59311 6.61399 5.68688 6.52022C5.78065 6.42645 5.83333 6.29927 5.83333 6.16667V3C5.83333 2.86739 5.88601 2.74021 5.97977 2.64645C6.07354 2.55268 6.20072 2.5 6.33333 2.5H13.6667C13.7323 2.5 13.7973 2.51293 13.858 2.53806C13.9187 2.56319 13.9738 2.60002 14.0202 2.64645C14.0666 2.69288 14.1035 2.748 14.1286 2.80866C14.1537 2.86932 14.1667 2.93434 14.1667 3V6.16667C14.1667 6.29927 14.2193 6.42645 14.3131 6.52022C14.4069 6.61399 14.5341 6.66667 14.6667 6.66667H16.1667C16.2323 6.66667 16.2973 6.6796 16.358 6.70473C16.4187 6.72985 16.4738 6.76668 16.5202 6.81311C16.5666 6.85954 16.6035 6.91466 16.6286 6.97532C16.6537 7.03599 16.6667 7.10101 16.6667 7.16667V17C16.6667 17.0657 16.6537 17.1307 16.6286 17.1913C16.6035 17.252 16.5666 17.3071 16.5202 17.3536C16.4738 17.4 16.4187 17.4368 16.358 17.4619C16.2973 17.4871 16.2323 17.5 16.1667 17.5H3.83333C3.70072 17.5 3.57354 17.4473 3.47977 17.3536C3.38601 17.2598 3.33333 17.1326 3.33333 17V7.16667C3.33333 7.03406 3.38601 6.90688 3.47977 6.81311C3.57354 6.71934 3.70072 6.66667 3.83333 6.66667H5.33333Z" stroke="#CCCCCC" stroke-width="1.5"/>
<path d="M8.32666 6.66667H9.99332M9.99332 6.66667H11.66M9.99332 6.66667V5M9.99332 6.66667V8.33333M13.3333 14.175L13.3417 14.1658M13.3333 10.8417L13.3417 10.8325M9.99999 10.8417L10.0083 10.8325M6.66666 10.8417L6.67499 10.8325M6.66666 14.175L6.67499 14.1658M9.99999 14.175L10.0083 14.1658" stroke="#CCCCCC" stroke-width="1.5" stroke-linecap="round" stroke-linejoin="round"/>
</svg>
