<svg width="20" height="20" viewBox="0 0 20 20" fill="none" xmlns="http://www.w3.org/2000/svg">
<path d="M4.71333 17.0658C4.59368 17.1699 4.44683 17.2376 4.29003 17.2611C4.13322 17.2846 3.97296 17.2629 3.82807 17.1985C3.68318 17.1341 3.55967 17.0297 3.47203 16.8976C3.3844 16.7654 3.33628 16.611 3.33333 16.4525V14.5833C2.8913 14.5833 2.46738 14.4077 2.15482 14.0952C1.84226 13.7826 1.66666 13.3587 1.66666 12.9167V7.08334C1.66666 6.64132 1.84226 6.21739 2.15482 5.90483C2.46738 5.59227 2.8913 5.41668 3.33333 5.41668H12.5C12.942 5.41668 13.3659 5.59227 13.6785 5.90483C13.9911 6.21739 14.1667 6.64132 14.1667 7.08334V12.9167C14.1667 13.3587 13.9911 13.7826 13.6785 14.0952C13.3659 14.4077 12.942 14.5833 12.5 14.5833H8.33583L4.71333 17.0658ZM5.41666 14.4883C5.4926 14.4879 5.56717 14.4681 5.63333 14.4308L7.59583 13.0658C7.7355 12.9687 7.90155 12.9167 8.07166 12.9167H11.6667C11.8877 12.9167 12.0996 12.8289 12.2559 12.6726C12.4122 12.5163 12.5 12.3044 12.5 12.0833V7.91668C12.5 7.69566 12.4122 7.4837 12.2559 7.32742C12.0996 7.17114 11.8877 7.08334 11.6667 7.08334H4.16666C3.94565 7.08334 3.73369 7.17114 3.57741 7.32742C3.42113 7.4837 3.33333 7.69566 3.33333 7.91668V12.0833C3.33333 12.5333 3.69083 12.9017 4.16666 12.9167C4.50833 12.93 4.75583 12.9858 4.87 13.105C4.97666 13.2167 4.9825 13.405 5 13.7633C5.0025 13.8158 5.0025 13.9108 5 14.0717C5 14.1822 5.0439 14.2882 5.12204 14.3663C5.20018 14.4444 5.30616 14.4883 5.41666 14.4883ZM15 10.43C14.9973 10.5328 14.9973 10.6356 15 10.7383V10.43C15.0167 10.0717 15.0233 9.88334 15.13 9.77168C15.2442 9.65251 15.4917 9.59668 15.8333 9.58334C16.3092 9.56834 16.6667 9.20001 16.6667 8.75001V4.58334C16.6667 4.36233 16.5789 4.15037 16.4226 3.99409C16.2663 3.83781 16.0543 3.75001 15.8333 3.75001H8.33333C8.11232 3.75001 7.90036 3.83781 7.74408 3.99409C7.58779 4.15037 7.5 4.36233 7.5 4.58334H5.83333V3.75001C5.83333 3.30798 6.00893 2.88406 6.32149 2.5715C6.63405 2.25894 7.05797 2.08334 7.5 2.08334H16.6667C17.1087 2.08334 17.5326 2.25894 17.8452 2.5715C18.1577 2.88406 18.3333 3.30798 18.3333 3.75001V9.58334C18.3333 10.0254 18.1577 10.4493 17.8452 10.7619C17.5326 11.0744 17.1087 11.25 16.6667 11.25V13.1192C16.6637 13.2777 16.6156 13.4321 16.528 13.5642C16.4403 13.6964 16.3168 13.8008 16.1719 13.8652C16.027 13.9296 15.8668 13.9513 15.71 13.9278C15.5532 13.9043 15.4063 13.8366 15.2867 13.7325L15 13.5358V10.4308V10.43Z" fill="#699BF7"/>
</svg>
