<svg width="20" height="20" viewBox="0 0 20 20" fill="none" xmlns="http://www.w3.org/2000/svg">
<path d="M4.71334 17.0658C4.59369 17.1699 4.44684 17.2376 4.29003 17.2611C4.13323 17.2846 3.97297 17.2629 3.82808 17.1985C3.68319 17.1341 3.55967 17.0297 3.47204 16.8976C3.38441 16.7654 3.33629 16.611 3.33334 16.4525V14.5833C2.89131 14.5833 2.46739 14.4077 2.15483 14.0952C1.84227 13.7826 1.66667 13.3587 1.66667 12.9167V7.08334C1.66667 6.64132 1.84227 6.21739 2.15483 5.90483C2.46739 5.59227 2.89131 5.41668 3.33334 5.41668H12.5C12.942 5.41668 13.366 5.59227 13.6785 5.90483C13.9911 6.21739 14.1667 6.64132 14.1667 7.08334V12.9167C14.1667 13.3587 13.9911 13.7826 13.6785 14.0952C13.366 14.4077 12.942 14.5833 12.5 14.5833H8.33584L4.71334 17.0658ZM5.41667 14.4883C5.49261 14.4879 5.56718 14.4681 5.63334 14.4308L7.59584 13.0658C7.73551 12.9687 7.90155 12.9167 8.07167 12.9167H11.6667C11.8877 12.9167 12.0996 12.8289 12.2559 12.6726C12.4122 12.5163 12.5 12.3044 12.5 12.0833V7.91668C12.5 7.69566 12.4122 7.4837 12.2559 7.32742C12.0996 7.17114 11.8877 7.08334 11.6667 7.08334H4.16667C3.94566 7.08334 3.7337 7.17114 3.57742 7.32742C3.42114 7.4837 3.33334 7.69566 3.33334 7.91668V12.0833C3.33334 12.5333 3.69084 12.9017 4.16667 12.9167C4.50834 12.93 4.75584 12.9858 4.87001 13.105C4.97667 13.2167 4.98251 13.405 5.00001 13.7633C5.00251 13.8158 5.00251 13.9108 5.00001 14.0717C5.00001 14.1822 5.0439 14.2882 5.12204 14.3663C5.20018 14.4444 5.30616 14.4883 5.41667 14.4883ZM15 10.43C14.9973 10.5328 14.9973 10.6356 15 10.7383V10.43C15.0167 10.0717 15.0233 9.88334 15.13 9.77168C15.2442 9.65251 15.4917 9.59668 15.8333 9.58334C16.3092 9.56834 16.6667 9.20001 16.6667 8.75001V4.58334C16.6667 4.36233 16.5789 4.15037 16.4226 3.99409C16.2663 3.83781 16.0544 3.75001 15.8333 3.75001H8.33334C8.11232 3.75001 7.90036 3.83781 7.74408 3.99409C7.5878 4.15037 7.5 4.36233 7.5 4.58334H5.83334V3.75001C5.83334 3.30798 6.00893 2.88406 6.32149 2.5715C6.63405 2.25894 7.05798 2.08334 7.5 2.08334H16.6667C17.1087 2.08334 17.5326 2.25894 17.8452 2.5715C18.1577 2.88406 18.3333 3.30798 18.3333 3.75001V9.58334C18.3333 10.0254 18.1577 10.4493 17.8452 10.7619C17.5326 11.0744 17.1087 11.25 16.6667 11.25V13.1192C16.6637 13.2777 16.6156 13.4321 16.528 13.5642C16.4403 13.6964 16.3168 13.8008 16.1719 13.8652C16.027 13.9296 15.8668 13.9513 15.71 13.9278C15.5532 13.9043 15.4063 13.8366 15.2867 13.7325L15 13.5358V10.4308V10.43Z" fill="#CCCCCC"/>
</svg>
