<svg width="58" height="58" viewBox="0 0 58 58" fill="none" xmlns="http://www.w3.org/2000/svg">
<circle cx="29" cy="29" r="29" fill="#699BF7"/>
<path d="M31.4431 44.242C31.4431 44.242 31.0886 37.2537 32.0687 35.6605C33.0489 34.0672 35.7745 33.0912 37.4429 31.3916C39.4449 29.35 39.9203 27.6108 41.3885 26.9247C42.6648 26.3303 43.3029 27.1687 43.3029 27.1687C43.3029 27.1687 43.1194 21.5943 43.3842 20.975C43.6491 20.3556 44.867 18.9855 46.1349 21.0188C47.4028 23.052 47.407 29.4918 46.552 33.3603C45.697 37.2287 41.1737 39.5519 40.8108 40.5258C40.448 41.4997 40.5647 44.242 40.5647 44.242H31.4431Z" fill="#FFC9B0"/>
<path d="M40.5543 44.4505H31.4431C31.3878 44.4505 31.3348 44.4286 31.2957 44.3894C31.2565 44.3503 31.2346 44.2973 31.2346 44.242C31.22 43.9542 30.8884 37.1703 31.8831 35.5416C32.4483 34.6199 33.5515 33.915 34.7047 33.1684C35.616 32.5824 36.5586 31.9776 37.2865 31.2352C37.9947 30.4972 38.6373 29.699 39.2071 28.8495C39.8786 27.8944 40.4083 27.1395 41.2926 26.7245C42.1267 26.3407 42.7169 26.5159 43.0735 26.7119C43.0339 25.3105 42.9463 21.44 43.1861 20.8728C43.3717 20.4411 43.9056 19.7758 44.6188 19.7216C45.2236 19.6778 45.7908 20.0699 46.3017 20.8915C47.6155 22.9978 47.6155 29.4418 46.7418 33.3874C46.1391 36.0984 43.8117 38.0504 42.2706 39.3371C41.645 39.8668 41.0882 40.3256 40.9923 40.5883C40.6482 41.5101 40.7587 44.1961 40.7608 44.2211C40.762 44.2495 40.7575 44.2778 40.7475 44.3043C40.7374 44.3308 40.7221 44.3551 40.7024 44.3755C40.6842 44.3974 40.6616 44.4154 40.6361 44.4284C40.6107 44.4413 40.5828 44.4488 40.5543 44.4505ZM31.6412 44.0334H40.3395C40.3187 43.3557 40.2874 41.3015 40.6044 40.4528C40.7378 40.0941 41.2696 39.6499 42.0058 39.0347C43.5031 37.7834 45.7595 35.8941 46.3372 33.3144C47.1901 29.4772 47.1713 23.0958 45.9514 21.1293C45.5343 20.4515 45.0901 20.1241 44.6522 20.1575C44.1079 20.1992 43.6887 20.7831 43.5698 21.0563C43.3905 21.4734 43.4343 25.0186 43.5052 27.1603C43.5064 27.2043 43.4937 27.2475 43.4688 27.2838C43.444 27.3201 43.4083 27.3476 43.3669 27.3624C43.3255 27.3772 43.2805 27.3785 43.2383 27.3662C43.1961 27.3539 43.1588 27.3285 43.1319 27.2938C43.109 27.2667 42.5709 26.6014 41.4636 27.1144C40.6774 27.4794 40.1748 28.1947 39.5387 29.0998C38.9565 29.9677 38.2999 30.7834 37.5763 31.5376C36.8152 32.3134 35.8538 32.9328 34.9216 33.5313C33.8017 34.2487 32.7444 34.9285 32.2314 35.7689C31.4014 37.1432 31.5954 42.8885 31.6412 44.0334Z" fill="#093F68"/>
<path d="M38.8735 35.575C38.8208 35.5748 38.7701 35.5547 38.7317 35.5187C38.6928 35.4796 38.671 35.4267 38.671 35.3717C38.671 35.3166 38.6928 35.2637 38.7317 35.2246C40.2269 33.6043 41.766 31.8442 42.694 29.7087C43.0456 28.9244 43.1831 28.0609 43.0923 27.2062C43.0875 27.1792 43.088 27.1516 43.0939 27.1248C43.0998 27.098 43.1109 27.0727 43.1266 27.0502C43.1423 27.0278 43.1623 27.0086 43.1853 26.9939C43.2084 26.9791 43.2342 26.9691 43.2612 26.9643C43.2883 26.9595 43.3161 26.9601 43.343 26.9662C43.3699 26.9722 43.3953 26.9835 43.4178 26.9994C43.4403 27.0153 43.4594 27.0355 43.474 27.0588C43.4887 27.0821 43.4986 27.1081 43.5031 27.1353C43.6128 28.0713 43.465 29.0194 43.0756 29.8776C42.11 32.0736 40.546 33.8629 39.0278 35.5083C39.0081 35.5295 38.9842 35.5464 38.9577 35.5579C38.9311 35.5693 38.9024 35.5752 38.8735 35.575Z" fill="#093F68"/>
<path d="M30.8863 39.5519H42.4416V45.7915H30.8863V39.5519Z" fill="#68E1FD"/>
<path d="M42.4416 46H30.8863C30.831 46 30.778 45.978 30.7388 45.9389C30.6997 45.8998 30.6778 45.8468 30.6778 45.7915V39.5519C30.6778 39.4966 30.6997 39.4435 30.7388 39.4044C30.778 39.3653 30.831 39.3433 30.8863 39.3433H42.4416C42.4969 39.3433 42.55 39.3653 42.5891 39.4044C42.6282 39.4435 42.6502 39.4966 42.6502 39.5519V45.7915C42.6502 45.8468 42.6282 45.8998 42.5891 45.9389C42.55 45.978 42.4969 46 42.4416 46ZM31.0948 45.5829H42.2331V39.7604H31.0948V45.5829Z" fill="#093F68"/>
<path d="M26.9094 44.242C26.9094 44.242 27.2639 37.2537 26.2838 35.6605C25.3036 34.0672 22.578 33.0912 20.9097 31.3916C18.9077 29.35 18.4322 27.6108 16.964 26.9247C15.6878 26.3303 15.0496 27.1687 15.0496 27.1687C15.0496 27.1687 15.2331 21.5943 14.9683 20.975C14.7035 20.3556 13.4856 18.9855 12.2176 21.0188C10.9497 23.052 10.9455 29.4918 11.8005 33.3603C12.6556 37.2287 17.1788 39.5519 17.5417 40.5258C17.9046 41.4997 17.7878 44.242 17.7878 44.242H26.9094Z" fill="#FFC9B0"/>
<path d="M26.9094 44.4505H17.7982C17.7701 44.4504 17.7423 44.4446 17.7165 44.4335C17.6907 44.4224 17.6675 44.4062 17.6481 44.3859C17.6284 44.3655 17.613 44.3413 17.603 44.3148C17.5929 44.2882 17.5884 44.2599 17.5897 44.2316C17.5897 44.2065 17.7023 41.5205 17.3582 40.5988C17.2623 40.3443 16.7138 39.8856 16.0798 39.3475C14.5387 38.0608 12.2114 36.1151 11.6087 33.3978C10.7349 29.4605 10.7349 23.0083 12.0487 20.902C12.5596 20.0803 13.1227 19.6862 13.7317 19.7321C14.4449 19.7863 14.9829 20.4515 15.1643 20.8832C15.4042 21.4421 15.3166 25.3126 15.2769 26.7224C15.6336 26.5138 16.2321 26.3512 17.0579 26.7349C17.9442 27.152 18.4739 27.9048 19.1433 28.8599C19.7131 29.7094 20.3558 30.5076 21.064 31.2457C21.7918 31.9881 22.7323 32.5928 23.6457 33.1788C24.8073 33.9254 25.9022 34.6386 26.4673 35.5521C27.4621 37.1808 27.1305 43.9646 27.1159 44.2524C27.1132 44.3055 27.0904 44.3556 27.052 44.3925C27.0136 44.4293 26.9626 44.4501 26.9094 44.4505ZM18.013 44.0335H26.7113C26.7572 42.8886 26.9511 37.1516 26.1128 35.7689C25.5998 34.9348 24.5425 34.2487 23.4226 33.5313C22.4904 32.9328 21.529 32.3134 20.7679 31.5376C20.0443 30.7834 19.3877 29.9677 18.8055 29.0998C18.1694 28.1947 17.6668 27.4794 16.8806 27.1144C15.7816 26.6014 15.2436 27.2667 15.2123 27.2959C15.1851 27.3304 15.1476 27.3555 15.1053 27.3675C15.063 27.3795 15.0179 27.3778 14.9766 27.3626C14.9343 27.3474 14.8979 27.3188 14.8731 27.2812C14.8483 27.2436 14.8364 27.199 14.839 27.1541C14.9099 25.0186 14.9537 21.4713 14.7744 21.05C14.6555 20.7748 14.2363 20.1929 13.692 20.1512C13.2541 20.1179 12.8162 20.4453 12.3928 21.123C11.1666 23.0958 11.1541 29.4647 12.007 33.3081C12.5805 35.8878 14.8411 37.7793 16.3384 39.0284C17.0746 39.6436 17.6064 40.0878 17.7398 40.4465C18.0652 41.3036 18.0339 43.3557 18.013 44.0335Z" fill="#093F68"/>
<path d="M19.4791 35.575C19.45 35.5749 19.4212 35.5688 19.3946 35.5569C19.3681 35.545 19.3443 35.5278 19.3248 35.5062C17.8066 33.8608 16.2425 32.0715 15.277 29.8755C14.8911 29.0164 14.7469 28.0682 14.8599 27.1332C14.8644 27.106 14.8743 27.08 14.8889 27.0567C14.9036 27.0334 14.9227 27.0132 14.9452 26.9973C14.9677 26.9814 14.9931 26.9701 15.02 26.9641C15.0469 26.9581 15.0747 26.9574 15.1018 26.9622C15.1288 26.967 15.1545 26.977 15.1776 26.9918C15.2007 27.0065 15.2207 27.0257 15.2364 27.0481C15.2521 27.0706 15.2632 27.096 15.2691 27.1227C15.2749 27.1495 15.2755 27.1771 15.2707 27.2041C15.1799 28.0588 15.3173 28.9223 15.669 29.7066C16.6075 31.8421 18.1465 33.6022 19.6313 35.2225C19.6702 35.2616 19.692 35.3145 19.692 35.3696C19.692 35.4247 19.6702 35.4775 19.6313 35.5166C19.6112 35.536 19.5873 35.5512 19.5611 35.5613C19.535 35.5713 19.5071 35.576 19.4791 35.575Z" fill="#093F68"/>
<path d="M15.9651 39.5519H27.5204V45.7915H15.9651V39.5519Z" fill="#68E1FD"/>
<path d="M27.5204 46H15.9651C15.9098 46 15.8568 45.978 15.8177 45.9389C15.7786 45.8998 15.7566 45.8468 15.7566 45.7915V39.5519C15.7566 39.4966 15.7786 39.4435 15.8177 39.4044C15.8568 39.3653 15.9098 39.3433 15.9651 39.3433H27.5204C27.5758 39.3433 27.6288 39.3653 27.6679 39.4044C27.707 39.4435 27.729 39.4966 27.729 39.5519V45.7915C27.729 45.8468 27.707 45.8998 27.6679 45.9389C27.6288 45.978 27.5758 46 27.5204 46ZM16.1737 45.5829H27.3119V39.7604H16.1737V45.5829Z" fill="#093F68"/>
<path d="M29.1763 32.5782C28.6633 32.1028 28.1669 31.6252 27.6539 31.1706C26.2247 29.9054 24.792 28.6444 23.3559 27.3876C22.3868 26.5666 21.4624 25.6943 20.5864 24.7746C19.7992 23.9578 19.1636 23.0073 18.7096 21.9676C18.4215 21.2571 18.228 20.5118 18.134 19.7508C18.0413 19.0696 18.0078 18.3816 18.0339 17.6946C18.134 15.3047 19.6042 13.2819 21.8043 12.5561C24.1817 11.7741 26.2567 12.3163 28.0522 14.043C28.4591 14.4427 28.8143 14.8918 29.1095 15.3798L29.1763 15.482L29.2576 15.3548C29.9 14.2945 30.8193 13.4293 31.9165 12.8523C32.8788 12.3514 33.9637 12.1344 35.0446 12.2266C36.2517 12.3102 37.3998 12.7804 38.3188 13.5676C39.3409 14.4274 40.0191 15.6268 40.229 16.9459C40.3287 17.6303 40.3462 18.3241 40.2811 19.0126C40.2394 19.7501 40.1142 20.4805 39.9078 21.1898C39.576 22.2705 39.0323 23.2744 38.3083 24.1427C37.5582 25.036 36.7359 25.866 35.8496 26.6244C34.5379 27.7818 33.2116 28.9183 31.904 30.082C31.0094 30.8765 30.1356 31.6982 29.2534 32.5053L29.1763 32.5782Z" fill="#F56132"/>
<path d="M29.1763 32.7868C29.1236 32.7866 29.0729 32.7665 29.0345 32.7305L28.5506 32.28C28.2128 31.963 27.8625 31.6356 27.5079 31.327C26.3234 30.2759 25.1361 29.2332 23.946 28.1989L23.2203 27.5399C22.2465 26.7131 21.3165 25.836 20.4342 24.9122C19.6301 24.0784 18.983 23.1063 18.5239 22.0427C18.2278 21.3158 18.0294 20.5528 17.9338 19.7738C17.8401 19.0828 17.806 18.3851 17.8316 17.6883C17.9359 15.2004 19.4707 13.1004 21.7459 12.3601C24.1462 11.5676 26.3172 12.0848 28.1982 13.895C28.5684 14.2573 28.8965 14.6602 29.1763 15.0962C29.8294 14.0687 30.7423 13.2321 31.8227 12.6708C32.8182 12.1567 33.9386 11.9341 35.0551 12.0285C36.3061 12.1092 37.4979 12.5903 38.4543 13.4007C39.5137 14.2933 40.2174 15.5365 40.4375 16.9042C40.5393 17.6045 40.5575 18.3143 40.4918 19.0188C40.4481 19.7718 40.3201 20.5175 40.1101 21.2419C39.7722 22.3503 39.2148 23.3793 38.471 24.2678C37.7128 25.1678 36.8829 26.0047 35.9893 26.7703C35.3929 27.2959 34.7944 27.82 34.1938 28.3428C33.4764 28.9684 32.7569 29.594 32.0437 30.2196C31.4285 30.766 30.8112 31.3353 30.2148 31.888C29.9416 32.1403 29.6705 32.3926 29.3952 32.6429L29.316 32.7159C29.2804 32.7568 29.2303 32.7822 29.1763 32.7868ZM23.8501 12.4185C23.1788 12.4246 22.5128 12.538 21.8773 12.7542C19.7689 13.4487 18.3446 15.3902 18.2487 17.7029C18.2233 18.3781 18.2561 19.0542 18.3467 19.7237C18.4381 20.4663 18.6275 21.1934 18.9097 21.8863C19.3496 22.9046 19.9699 23.8351 20.7407 24.6328C21.6118 25.5449 22.53 26.4108 23.4914 27.2271L24.2297 27.8735C25.4183 28.919 26.6063 29.9659 27.7936 31.0142C28.1482 31.3291 28.4985 31.6586 28.8363 31.9756L29.1763 32.2946L29.9291 31.5981C30.5276 31.0475 31.1449 30.4761 31.7643 29.9298C32.4796 29.3041 33.199 28.6785 33.9185 28.0404C34.5177 27.519 35.1155 26.9956 35.712 26.47C36.5875 25.7167 37.4007 24.8937 38.1436 24.0093C38.8523 23.1647 39.3836 22.1859 39.7056 21.1314C39.9105 20.4339 40.0351 19.7154 40.0768 18.9896C40.1407 18.3179 40.1246 17.641 40.0288 16.973C39.8243 15.6997 39.1703 14.5418 38.1853 13.7094C37.2915 12.9588 36.1804 12.5151 35.0154 12.4435C33.976 12.3559 32.933 12.5634 32.0062 13.042C30.9404 13.5982 30.0486 14.4374 29.4286 15.4674L29.3452 15.5946C29.3263 15.624 29.3004 15.6481 29.2698 15.6649C29.2392 15.6816 29.2049 15.6905 29.17 15.6905C29.1356 15.6881 29.1022 15.6782 29.072 15.6617C29.0417 15.6451 29.0154 15.6222 28.9948 15.5946L28.926 15.4882C28.6418 15.016 28.2999 14.581 27.9083 14.1932C26.6738 13.0128 25.3224 12.4185 23.8501 12.4185Z" fill="#093F68"/>
<path d="M31.7246 26.2302H31.71C31.6663 26.2272 31.6246 26.2105 31.5909 26.1824C31.5572 26.1543 31.5332 26.1163 31.5224 26.0738L29.4682 17.7384L26.6133 24.4117C26.598 24.4475 26.5731 24.4783 26.5412 24.5006C26.5094 24.5229 26.4719 24.5359 26.4331 24.5381C26.3943 24.5403 26.3556 24.5315 26.3215 24.5129C26.2874 24.4942 26.2591 24.4664 26.24 24.4326L24.532 21.4254H19.062C19.0067 21.4254 18.9536 21.4034 18.9145 21.3643C18.8754 21.3252 18.8534 21.2722 18.8534 21.2169C18.8534 21.1616 18.8754 21.1085 18.9145 21.0694C18.9536 21.0303 19.0067 21.0083 19.062 21.0083H24.653C24.6899 21.0084 24.7262 21.0183 24.7581 21.037C24.79 21.0557 24.8163 21.0825 24.8344 21.1147L26.3964 23.8612L29.3306 16.9939C29.3479 16.9539 29.3773 16.9202 29.4147 16.8978C29.4521 16.8753 29.4956 16.8652 29.5391 16.8688C29.5825 16.8722 29.6237 16.8891 29.657 16.9172C29.6903 16.9452 29.714 16.983 29.7247 17.0252L31.7726 25.3293L34.102 19.4755C34.1175 19.4367 34.1442 19.4035 34.1788 19.3801C34.2134 19.3566 34.2542 19.3441 34.296 19.3442H39.6034C39.6587 19.3442 39.7117 19.3661 39.7508 19.4052C39.7899 19.4444 39.8119 19.4974 39.8119 19.5527C39.8119 19.608 39.7899 19.6611 39.7508 19.7002C39.7117 19.7393 39.6587 19.7613 39.6034 19.7613H34.4378L31.9186 26.0884C31.9048 26.1292 31.8788 26.1647 31.8441 26.1901C31.8094 26.2154 31.7677 26.2295 31.7246 26.2302Z" fill="white"/>
</svg>
