<svg width="66" height="66" viewBox="0 0 66 66" fill="none" xmlns="http://www.w3.org/2000/svg">
<path d="M24.2 30.8C21.2826 30.8 18.4847 29.6411 16.4218 27.5782C14.3589 25.5153 13.2 22.7174 13.2 19.8V11C13.2 10.4165 13.4318 9.85694 13.8444 9.44436C14.2569 9.03178 14.8165 8.79999 15.4 8.79999H17.6C18.1835 8.79999 18.7431 8.56821 19.1556 8.15563C19.5682 7.74305 19.8 7.18347 19.8 6.59999C19.8 6.01652 19.5682 5.45694 19.1556 5.04436C18.7431 4.63178 18.1835 4.39999 17.6 4.39999H15.4C13.6496 4.39999 11.9708 5.09535 10.7331 6.33309C9.49536 7.57083 8.8 9.24957 8.8 11V19.8C8.80283 22.2854 9.4089 24.733 10.5662 26.9326C11.7234 29.1321 13.3973 31.0179 15.444 32.428C17.4104 34.1617 19.0052 36.2758 20.132 38.6428C21.2587 41.0098 21.8942 43.5806 22 46.2C22 50.2843 23.6225 54.2014 26.5106 57.0894C29.3986 59.9775 33.3157 61.6 37.4 61.6C41.4843 61.6 45.4014 59.9775 48.2894 57.0894C51.1775 54.2014 52.8 50.2843 52.8 46.2V43.692C54.8739 43.1565 56.6812 41.8831 57.8833 40.1104C59.0854 38.3377 59.5997 36.1874 59.3299 34.0626C59.06 31.9378 58.0244 29.9844 56.4173 28.5685C54.8102 27.1526 52.7419 26.3714 50.6 26.3714C48.4581 26.3714 46.3898 27.1526 44.7827 28.5685C43.1756 29.9844 42.14 31.9378 41.8701 34.0626C41.6003 36.1874 42.1146 38.3377 43.3167 40.1104C44.5188 41.8831 46.3262 43.1565 48.4 43.692V46.2C48.4 49.1174 47.2411 51.9153 45.1782 53.9782C43.1153 56.0411 40.3174 57.2 37.4 57.2C34.4826 57.2 31.6847 56.0411 29.6218 53.9782C27.5589 51.9153 26.4 49.1174 26.4 46.2C26.5114 43.5774 27.1537 41.0046 28.2881 38.6374C29.4226 36.2702 31.0255 34.1578 33 32.428C35.0386 31.013 36.7039 29.1251 37.8533 26.9258C39.0028 24.7266 39.6021 22.2815 39.6 19.8V11C39.6 9.24957 38.9046 7.57083 37.6669 6.33309C36.4292 5.09535 34.7504 4.39999 33 4.39999H30.8C30.2165 4.39999 29.6569 4.63178 29.2444 5.04436C28.8318 5.45694 28.6 6.01652 28.6 6.59999C28.6 7.18347 28.8318 7.74305 29.2444 8.15563C29.6569 8.56821 30.2165 8.79999 30.8 8.79999H33C33.5835 8.79999 34.1431 9.03178 34.5556 9.44436C34.9682 9.85694 35.2 10.4165 35.2 11V19.8C35.2 21.2445 34.9155 22.6749 34.3627 24.0095C33.8099 25.3441 32.9996 26.5567 31.9782 27.5782C30.9567 28.5996 29.7441 29.4099 28.4095 29.9627C27.0749 30.5155 25.6445 30.8 24.2 30.8ZM50.6 39.6C49.4331 39.6 48.3139 39.1364 47.4887 38.3113C46.6636 37.4861 46.2 36.3669 46.2 35.2C46.2 34.033 46.6636 32.9139 47.4887 32.0887C48.3139 31.2636 49.4331 30.8 50.6 30.8C51.767 30.8 52.8861 31.2636 53.7113 32.0887C54.5364 32.9139 55 34.033 55 35.2C55 36.3669 54.5364 37.4861 53.7113 38.3113C52.8861 39.1364 51.767 39.6 50.6 39.6Z" fill="#699BF7"/>
</svg>
